<?xml version="1.0" standalone="no"?>
<!DOCTYPE svg PUBLIC "-//W3C//DTD SVG 20010904//EN"
 "http://www.w3.org/TR/2001/REC-SVG-20010904/DTD/svg10.dtd">
<svg version="1.0" xmlns="http://www.w3.org/2000/svg"
 width="640" height="512" viewBox="0 0 425.000000 425.000000"
 preserveAspectRatio="xMidYMid meet">

<g transform="translate(0.000000,425.000000) scale(0.100000,-0.100000)"
fill="#000000" stroke="none">
<path d="M1847 4165 c-126 -35 -236 -125 -293 -240 -27 -56 -29 -68 -29 -175
0 -109 2 -118 33 -185 29 -61 60 -96 260 -298 125 -126 245 -242 266 -258 44
-32 91 -38 134 -15 15 8 136 124 268 258 264 265 292 304 314 429 31 178 -70
371 -234 448 -126 59 -220 64 -337 17 l-64 -25 -85 29 c-93 33 -155 36 -233
15z"/>
<path d="M948 3120 c-141 -25 -255 -85 -359 -189 -133 -133 -196 -299 -187
-490 9 -165 70 -302 188 -421 122 -122 256 -180 430 -188 198 -8 339 47 481
188 103 102 158 203 185 339 62 315 -126 631 -436 735 -84 28 -225 40 -302 26z"/>
<path d="M3174 3121 c-131 -21 -262 -89 -361 -188 -58 -58 -81 -92 -117 -165
-55 -115 -69 -178 -69 -293 0 -179 59 -322 187 -451 68 -68 97 -89 176 -127
115 -56 198 -72 329 -64 163 10 292 68 412 188 63 62 85 93 122 170 57 118 71
189 64 327 -8 175 -69 304 -201 430 -79 75 -193 138 -289 161 -66 16 -191 22
-253 12z"/>
<path d="M881 1569 c-78 -14 -228 -65 -291 -101 -228 -127 -405 -344 -474
-580 -40 -137 -46 -207 -46 -498 0 -267 1 -287 20 -318 11 -18 34 -41 52 -52
32 -19 53 -20 909 -20 l876 0 34 23 c58 39 59 44 59 372 0 319 -6 384 -46 509
-49 153 -124 276 -238 391 -119 120 -280 213 -441 256 -91 24 -323 34 -414 18z"/>
<path d="M3095 1566 c-322 -62 -601 -289 -721 -586 -63 -155 -67 -187 -72
-546 -4 -368 -3 -375 61 -414 31 -19 57 -20 907 -20 829 0 877 1 909 18 68 37
71 52 71 375 0 252 -3 302 -21 390 -40 198 -118 352 -248 489 -133 140 -286
233 -464 279 -104 27 -318 35 -422 15z"/>
</g>
</svg>
